HIERARCHY
ROOT SpineBase
{
  OFFSET 0.000000 0.000000 0.000000
  CHANNELS 6 Xposition Yposition Zposition Zrotation Xrotation Yrotation
  JOINT SpineMid
  {
    OFFSET 0.000000 27.388847 0.000000
    CHANNELS 3 Zrotation Xrotation Yrotation
    JOINT SpineShoulder
    {
      OFFSET -0.057030 20.345417 -0.643357
      CHANNELS 3 Zrotation Xrotation Yrotation
      JOINT Neck
      {
        OFFSET -0.042581 6.724693 -0.507192
        CHANNELS 3 Zrotation Xrotation Yrotation
        JOINT Head
        {
          OFFSET -3.988572 15.109662 1.908398
          CHANNELS 3 Zrotation Xrotation Yrotation
          End Site
          {
            OFFSET 0 0 0
          }
        }
      }
      JOINT ShoulderLeft
      {
        OFFSET -13.674413 -3.978220 9.124249
        CHANNELS 3 Zrotation Xrotation Yrotation
        JOINT ElbowLeft
        {
          OFFSET -0.437144 -27.207485 1.018993
          CHANNELS 3 Zrotation Xrotation Yrotation
          JOINT WristLeft
          {
            OFFSET 0.366515 -20.132268 -1.509817
            CHANNELS 3 Zrotation Xrotation Yrotation
            JOINT HandLeft
            {
              OFFSET 0.383138 -6.776525 -0.931845
              CHANNELS 3 Zrotation Xrotation Yrotation
              JOINT HandTipLeft
              {
                OFFSET 0.459143 -6.455090 -0.395136
                CHANNELS 3 Zrotation Xrotation Yrotation
                End Site
                {
                  OFFSET 0 0 0
                }
              }
              JOINT ThumbLeft
              {
                OFFSET -1.526774 -1.370990 -1.380596
                CHANNELS 3 Zrotation Xrotation Yrotation
                End Site
                {
                  OFFSET 0 0 0
                }
              }
            }
          }
        }
      }
      JOINT ShoulderRight
      {
        OFFSET 10.070919 -4.390375 -9.637689
        CHANNELS 3 Zrotation Xrotation Yrotation
        JOINT ElbowRight
        {
          OFFSET 6.925098 -20.092722 -2.688327
          CHANNELS 3 Zrotation Xrotation Yrotation
          JOINT WristRight
          {
            OFFSET -0.551798 -20.105525 -4.295005
            CHANNELS 3 Zrotation Xrotation Yrotation
            JOINT HandRight
            {
              OFFSET -1.684810 -7.164722 -0.788389
              CHANNELS 3 Zrotation Xrotation Yrotation
              JOINT HandTipRight
              {
                OFFSET 0.437112 -6.406865 -0.912321
                CHANNELS 3 Zrotation Xrotation Yrotation
                End Site
                {
                  OFFSET 0 0 0
                }
              }
              JOINT ThumbRight
              {
                OFFSET 2.141120 -2.818641 -1.447956
                CHANNELS 3 Zrotation Xrotation Yrotation
                End Site
                {
                  OFFSET 0 0 0
                }
              }
            }
          }
        }
      }
    }
  }
  JOINT HipLeft
  {
    OFFSET -5.248136 -0.102759 0.234215
    CHANNELS 3 Zrotation Xrotation Yrotation
    JOINT KneeLeft
    {
      OFFSET 8.135639 -30.120252 7.308520
      CHANNELS 3 Zrotation Xrotation Yrotation
      JOINT AnkleLeft
      {
        OFFSET 9.967701 -32.838158 9.486116
        CHANNELS 3 Zrotation Xrotation Yrotation
        JOINT FootLeft
        {
          OFFSET -0.828803 -9.540386 -3.073300
          CHANNELS 3 Zrotation Xrotation Yrotation
          End Site
          {
            OFFSET 0 0 0
          }
        }
      }
    }
  }
  JOINT HipRight
  {
    OFFSET 5.044731 1.290587 -6.561459
    CHANNELS 3 Zrotation Xrotation Yrotation
    JOINT KneeRight
    {
      OFFSET 11.639641 -37.494823 9.525052
      CHANNELS 3 Zrotation Xrotation Yrotation
      JOINT AnkleRight
      {
        OFFSET 5.165996 -26.771255 3.979796
        CHANNELS 3 Zrotation Xrotation Yrotation
        JOINT FootRight
        {
          OFFSET -3.630004 -6.543497 -3.013154
          CHANNELS 3 Zrotation Xrotation Yrotation
          End Site
          {
            OFFSET 0 0 0
          }
        }
      }
    }
  }
}
MOTION
Frames: 10
Frame Time: 0.033333
12.761582 73.218711 349.008251 -0.000000 0.000000 33.434045 0.000000 0.000000 -33.434045 -0.000000 0.000000 0.000000 -0.000000 0.000000 0.000000 0.000000 0.000000 0.000000 -0.000000 0.000000 0.000000 -0.000000 0.000000 0.000000 -0.000000 0.000000 0.000000 -0.000000 0.000000 0.000000 0.000000 0.000000 0.000000 0.000000 0.000000 0.000000 -0.000000 0.000000 0.000000 -0.000000 0.000000 0.000000 -0.000000 0.000000 0.000000 -0.000000 0.000000 0.000000 0.000000 0.000000 0.000000 0.000000 0.000000 0.000000 0.000000 0.000000 -33.434045 -0.000000 0.000000 0.000000 -0.000000 0.000000 0.000000 0.000000 0.000000 0.000000 0.000000 0.000000 -33.434045 -0.000000 0.000000 0.000000 -0.000000 0.000000 0.000000 0.000000 0.000000 0.000000
12.778314 73.213782 349.025906 0.023950 0.008811 33.544311 -0.024830 0.005891 -33.544312 -0.000000 0.000000 0.000000 -0.000000 0.000000 0.000000 0.000000 0.000000 0.000000 -1.091438 -3.598933 -0.017303 4.681299 8.376917 -0.604648 -2.714531 -5.819726 -0.064544 3.276328 -0.635525 -0.204096 0.000000 0.000000 0.000000 0.000000 0.000000 0.000000 -0.000000 0.000000 0.000000 0.928342 -1.116011 -0.159014 0.980789 -2.437072 0.831192 -1.863992 3.576408 -0.573781 0.000000 0.000000 0.000000 0.000000 0.000000 0.000000 -0.024830 0.005891 -33.544312 -0.000000 0.000000 0.000000 -8.729138 13.510819 2.559159 0.000000 0.000000 0.000000 -0.024830 0.005891 -33.544312 0.151220 -0.836243 -0.137603 -1.463330 1.163098 0.578846 0.000000 0.000000 0.000000
12.788796 73.208067 349.033998 0.038112 0.020494 33.598640 -0.043086 0.004020 -33.598645 -0.000000 0.000000 0.000000 -0.000000 0.000000 0.000000 0.000000 0.000000 0.000000 -1.800070 -5.894662 -0.065174 7.724937 13.556745 -1.414038 -4.867728 -9.151330 -0.169909 6.033695 -1.256993 -0.410922 0.000000 0.000000 0.000000 0.000000 0.000000 0.000000 -0.000000 0.000000 0.000000 1.349459 -1.673144 -0.223429 1.462375 -3.879126 1.329734 -2.701346 5.605995 -0.880095 0.000000 0.000000 0.000000 0.000000 0.000000 0.000000 -0.043086 0.004020 -33.598645 -0.807250 0.905656 0.048304 -15.756203 23.235121 6.033290 0.000000 0.000000 0.000000 0.659532 0.735085 -33.246937 -0.010088 -2.478497 -0.610055 -2.527172 1.531488 1.348999 0.000000 0.000000 0.000000
12.793028 73.201565 349.032527 0.042496 0.035049 33.596731 -0.054791 -0.005680 -33.596746 -0.000000 0.000000 0.000000 -0.000000 0.000000 0.000000 0.000000 0.000000 0.000000 -2.129455 -6.911593 -0.096940 9.152937 15.803937 -1.890478 -6.542417 -10.258673 -0.255624 8.101369 -1.739143 -0.583128 0.000000 0.000000 0.000000 0.000000 0.000000 0.000000 -0.000000 0.000000 0.000000 1.261957 -1.665223 -0.206251 1.584117 -4.668435 1.514253 -3.520204 7.346384 -0.765290 0.000000 0.000000 0.000000 0.000000 0.000000 0.000000 -0.054791 -0.005680 -33.596746 -1.103537 1.224977 0.065240 -21.465813 29.888887 9.439116 0.000000 0.000000 0.000000 0.957560 0.975372 -33.100309 -0.212720 -3.344088 -0.866140 -3.169324 1.113830 2.288456 0.000000 0.000000 0.000000
12.791009 73.194276 349.021493 0.037106 0.052476 33.538390 -0.059921 -0.023239 -33.538419 -0.000000 0.000000 0.000000 -0.000000 0.000000 0.000000 0.000000 0.000000 0.000000 -2.080465 -6.664898 -0.091649 8.945470 15.276663 -1.798740 -7.855589 -9.235680 -0.222961 9.477712 -2.068382 -0.719377 0.000000 0.000000 0.000000 0.000000 0.000000 0.000000 -0.000000 0.000000 0.000000 0.668374 -1.095203 -0.106569 1.354703 -4.904200 1.390392 -4.120886 7.634120 -0.413014 0.000000 0.000000 0.000000 0.000000 0.000000 0.000000 -0.059921 -0.023239 -33.538419 -1.331060 1.458860 0.075813 -24.826187 33.545267 11.705512 0.000000 0.000000 0.000000 1.225158 1.121021 -32.921175 -0.532018 -3.980814 -1.094068 -3.355178 -0.087352 3.389475 0.000000 0.000000 0.000000
12.782740 73.186201 349.000897 0.021947 0.072777 33.423530 -0.058405 -0.048652 -33.423569 -0.000000 0.000000 0.000000 -0.000000 0.000000 0.000000 0.000000 0.000000 0.000000 -1.650868 -5.143564 -0.053190 7.116259 11.944207 -1.184319 -8.969208 -5.973564 0.095768 10.315734 -2.341952 -0.836575 0.000000 0.000000 0.000000 0.000000 0.000000 0.000000 -0.000000 0.000000 0.000000 -0.000000 0.000000 0.000000 0.235039 -4.442379 1.033299 -4.438818 6.855216 0.176046 0.000000 0.000000 0.000000 0.000000 0.000000 0.000000 -0.058405 -0.048652 -33.423569 -1.491419 1.609313 0.079248 -25.591925 34.825779 12.340657 0.000000 0.000000 0.000000 1.457128 1.167789 -32.711128 -0.963378 -4.396330 -1.294497 -3.039214 -2.068245 4.659073 0.000000 0.000000 0.000000
12.775244 73.170711 348.959789 0.007240 0.112220 33.211201 -0.067523 -0.089924 -33.211261 -0.000000 0.000000 0.000000 -0.000000 0.000000 0.000000 0.000000 0.000000 0.000000 -0.854407 -2.028187 -0.014523 4.378978 4.727226 -0.437326 -9.852380 1.003391 1.118322 10.328882 -5.493333 -0.904684 0.000000 0.000000 0.000000 0.000000 0.000000 0.000000 1.331767 -0.625290 -0.385175 -3.089488 1.707447 0.776879 -0.491363 -3.722400 0.439562 -4.629908 5.122439 0.705919 0.000000 0.000000 0.000000 0.000000 0.000000 0.000000 -0.067523 -0.089924 -33.211261 -1.542248 1.587351 0.058149 -21.663612 32.850595 9.975468 0.000000 0.000000 0.000000 1.764356 1.156062 -32.375304 -1.648248 -4.722256 -1.541432 -0.902065 -9.194950 8.225206 0.000000 0.000000 0.000000
12.749496 73.154837 348.917463 -0.027805 0.133683 32.959503 -0.049400 -0.127295 -32.959525 -0.000000 0.000000 0.000000 -0.000000 0.000000 0.000000 0.000000 0.000000 0.000000 0.416720 2.577647 -0.035222 0.178748 -6.347159 -0.050423 -15.222675 11.791972 4.577069 13.400512 -7.621596 -1.335325 0.000000 0.000000 0.000000 0.000000 0.000000 0.000000 2.464881 -1.305281 -0.747241 -5.800817 3.313457 1.577217 -5.815321 3.329525 -0.735752 -2.217799 -2.365336 1.744329 0.000000 0.000000 0.000000 0.000000 0.000000 0.000000 -0.049400 -0.127295 -32.959525 -1.484792 1.468749 0.036215 -14.630877 27.758994 5.902934 0.000000 0.000000 0.000000 2.052879 1.049615 -32.027743 -2.271381 -4.729039 -1.702372 3.258493 -17.254176 12.177621 0.000000 0.000000 0.000000
12.706677 73.140657 348.873318 -0.092763 0.151090 32.706170 -0.003583 -0.177257 -32.706054 -0.000000 0.000000 0.000000 -0.000000 0.000000 0.000000 0.000000 0.000000 0.000000 1.907656 7.564332 -0.176867 -7.129706 -17.948442 -1.048935 -19.646803 22.324327 10.419785 16.563224 -7.912305 -1.481171 0.000000 0.000000 0.000000 0.000000 0.000000 0.000000 3.757304 -2.059142 -1.134980 -9.035789 6.792709 2.613926 -11.695039 10.740213 -1.618458 -2.410054 -10.048058 2.872845 0.000000 0.000000 0.000000 0.000000 0.000000 0.000000 -0.003583 -0.177257 -32.706054 -1.411184 1.565857 0.087613 -6.166557 15.638395 1.745347 0.000000 0.000000 0.000000 2.345416 0.888156 -31.691290 -3.357774 -4.874505 -1.984762 1.964007 -12.962700 10.187116 0.000000 0.000000 0.000000
12.663817 73.131462 348.853226 -0.164318 0.154019 32.460602 0.055981 -0.218147 -32.460274 -0.000000 0.000000 0.000000 -0.000000 0.000000 0.000000 0.000000 0.000000 0.000000 3.547072 12.658632 -0.467062 -17.912502 -28.725790 -4.811491 -24.818847 28.888851 18.324630 20.589925 -4.993642 -1.305772 0.000000 0.000000 0.000000 0.000000 0.000000 0.000000 5.338571 -4.080354 -1.909639 -15.957368 13.426460 5.668518 -13.046107 20.062066 -3.277387 -0.913955 -20.832344 3.648861 0.000000 0.000000 0.000000 0.000000 0.000000 0.000000 0.055981 -0.218147 -32.460274 -1.403906 1.512928 0.072773 -1.722342 8.812222 0.266165 0.000000 0.000000 0.000000 1.895349 0.159475 -31.711696 -3.674579 -2.838725 -1.492457 6.451486 -20.511795 13.277317 0.000000 0.000000 0.000000
